<mxfile host="app.diagrams.net" modified="2021-03-24T12:58:45.045Z" agent="5.0 (Windows NT 10.0; Win64; x64) AppleWebKit/537.36 (KHTML, like Gecko) Chrome/89.0.4389.90 Safari/537.36" etag="BbGVwBFe8aOIT3ivuWI-" version="14.5.1" type="github">
  <diagram id="Tvbwt20sWZMAF5A0X6A5" name="Page-1">
    <mxGraphModel dx="868" dy="2593" grid="1" gridSize="10" guides="1" tooltips="1" connect="1" arrows="1" fold="1" page="1" pageScale="1" pageWidth="850" pageHeight="1100" math="0" shadow="0">
      <root>
        <mxCell id="0" />
        <mxCell id="1" parent="0" />
        <mxCell id="7TgRyDSSs4bbHTWSsB8Q-2" value="start&lt;br&gt;" style="strokeWidth=2;html=1;shape=mxgraph.flowchart.start_2;whiteSpace=wrap;" vertex="1" parent="1">
          <mxGeometry x="330" y="-1560" width="200" height="100" as="geometry" />
        </mxCell>
        <mxCell id="7TgRyDSSs4bbHTWSsB8Q-3" value="sum=0&lt;br&gt;avg=0" style="rounded=1;whiteSpace=wrap;html=1;absoluteArcSize=1;arcSize=14;strokeWidth=2;" vertex="1" parent="1">
          <mxGeometry x="280" y="-1400" width="290" height="100" as="geometry" />
        </mxCell>
        <mxCell id="7TgRyDSSs4bbHTWSsB8Q-4" value="sum=num1+num2" style="rounded=1;whiteSpace=wrap;html=1;absoluteArcSize=1;arcSize=14;strokeWidth=2;" vertex="1" parent="1">
          <mxGeometry x="260" y="-1070" width="280" height="100" as="geometry" />
        </mxCell>
        <mxCell id="7TgRyDSSs4bbHTWSsB8Q-5" value="avg=sum/2" style="rounded=1;whiteSpace=wrap;html=1;absoluteArcSize=1;arcSize=14;strokeWidth=2;" vertex="1" parent="1">
          <mxGeometry x="265" y="-900" width="270" height="100" as="geometry" />
        </mxCell>
        <mxCell id="7TgRyDSSs4bbHTWSsB8Q-6" value="input num1,num2" style="shape=parallelogram;html=1;strokeWidth=2;perimeter=parallelogramPerimeter;whiteSpace=wrap;rounded=1;arcSize=12;size=0.23;" vertex="1" parent="1">
          <mxGeometry x="280" y="-1220" width="260" height="80" as="geometry" />
        </mxCell>
        <mxCell id="7TgRyDSSs4bbHTWSsB8Q-7" value="display sum,avg" style="shape=parallelogram;html=1;strokeWidth=2;perimeter=parallelogramPerimeter;whiteSpace=wrap;rounded=1;arcSize=12;size=0.23;" vertex="1" parent="1">
          <mxGeometry x="290" y="-710" width="230" height="80" as="geometry" />
        </mxCell>
        <mxCell id="7TgRyDSSs4bbHTWSsB8Q-8" value="End" style="strokeWidth=2;html=1;shape=mxgraph.flowchart.start_1;whiteSpace=wrap;" vertex="1" parent="1">
          <mxGeometry x="330" y="-540" width="140" height="70" as="geometry" />
        </mxCell>
        <mxCell id="7TgRyDSSs4bbHTWSsB8Q-12" value="" style="endArrow=classic;html=1;" edge="1" parent="1">
          <mxGeometry width="50" height="50" relative="1" as="geometry">
            <mxPoint x="429.5" y="-1460" as="sourcePoint" />
            <mxPoint x="429.5" y="-1400" as="targetPoint" />
          </mxGeometry>
        </mxCell>
        <mxCell id="7TgRyDSSs4bbHTWSsB8Q-14" value="" style="endArrow=classic;html=1;" edge="1" parent="1">
          <mxGeometry width="50" height="50" relative="1" as="geometry">
            <mxPoint x="429.5" y="-1300" as="sourcePoint" />
            <mxPoint x="429.5" y="-1220" as="targetPoint" />
          </mxGeometry>
        </mxCell>
        <mxCell id="7TgRyDSSs4bbHTWSsB8Q-15" value="" style="endArrow=classic;html=1;" edge="1" parent="1">
          <mxGeometry width="50" height="50" relative="1" as="geometry">
            <mxPoint x="399.5" y="-1140" as="sourcePoint" />
            <mxPoint x="399.5" y="-1070" as="targetPoint" />
          </mxGeometry>
        </mxCell>
        <mxCell id="7TgRyDSSs4bbHTWSsB8Q-16" value="" style="endArrow=classic;html=1;" edge="1" parent="1">
          <mxGeometry width="50" height="50" relative="1" as="geometry">
            <mxPoint x="399.5" y="-970" as="sourcePoint" />
            <mxPoint x="399.5" y="-900" as="targetPoint" />
            <Array as="points">
              <mxPoint x="399.5" y="-970" />
            </Array>
          </mxGeometry>
        </mxCell>
        <mxCell id="7TgRyDSSs4bbHTWSsB8Q-17" value="" style="endArrow=classic;html=1;" edge="1" parent="1">
          <mxGeometry width="50" height="50" relative="1" as="geometry">
            <mxPoint x="399.5" y="-800" as="sourcePoint" />
            <mxPoint x="399.5" y="-710" as="targetPoint" />
          </mxGeometry>
        </mxCell>
        <mxCell id="7TgRyDSSs4bbHTWSsB8Q-18" value="" style="endArrow=classic;html=1;" edge="1" parent="1">
          <mxGeometry width="50" height="50" relative="1" as="geometry">
            <mxPoint x="399.5" y="-630" as="sourcePoint" />
            <mxPoint x="399.5" y="-540" as="targetPoint" />
          </mxGeometry>
        </mxCell>
      </root>
    </mxGraphModel>
  </diagram>
</mxfile>
